<svg width="224" height="48" viewBox="0 0 224 48" fill="none" xmlns="http://www.w3.org/2000/svg">
<path d="M1.00001 4L1.00001 20L21.6431 20L21.6431 11.1306L21.6431 4L41 4L41 20M0.999991 43L0.999992 27.0141L41 27.0141L41 43" stroke="black" stroke-width="1.96418" stroke-linecap="square"/>
<path d="M65.0255 12.4606C63.3663 11.9837 62.1572 11.3993 61.3981 10.7074C60.6458 10.0088 60.2696 9.14895 60.2696 8.12791C60.2696 6.97251 60.7297 6.01864 61.65 5.2663C62.577 4.50723 63.7794 4.1277 65.2572 4.1277C66.2649 4.1277 67.1616 4.3225 67.9476 4.71211C68.7402 5.10172 69.3515 5.63911 69.7814 6.32429C70.218 7.00946 70.4364 7.75845 70.4364 8.57125H68.4917C68.4917 7.68456 68.2095 6.98931 67.6453 6.4855C67.081 5.97498 66.285 5.71972 65.2572 5.71972C64.3034 5.71972 63.5577 5.93132 63.0204 6.35451C62.4897 6.77099 62.2243 7.35205 62.2243 8.09768C62.2243 8.69552 62.4762 9.20269 62.9801 9.61917C63.4906 10.0289 64.3538 10.4051 65.5696 10.7477C66.7922 11.0903 67.746 11.4698 68.4312 11.8863C69.1231 12.296 69.6336 12.7763 69.9628 13.3272C70.2986 13.878 70.4666 14.5262 70.4666 15.2718C70.4666 16.4608 70.0031 17.4147 69.0761 18.1335C68.1491 18.8455 66.9097 19.2015 65.358 19.2015C64.3504 19.2015 63.41 19.0101 62.5367 18.6272C61.6634 18.2376 60.9883 17.7069 60.5114 17.0352C60.0412 16.3634 59.8061 15.601 59.8061 14.7479H61.7508C61.7508 15.6346 62.0766 16.3366 62.7282 16.8538C63.3865 17.3643 64.2631 17.6196 65.358 17.6196C66.3791 17.6196 67.1616 17.4113 67.7057 16.9949C68.2498 16.5784 68.5219 16.0108 68.5219 15.292C68.5219 14.5732 68.27 14.0191 67.7662 13.6294C67.2624 13.2331 66.3488 12.8435 65.0255 12.4606ZM89.8868 4.32922V14.3045C89.8801 15.6883 89.4435 16.8202 88.5769 17.7002C87.7171 18.5802 86.5483 19.0739 85.0705 19.1814L84.5566 19.2015C82.9511 19.2015 81.6715 18.7683 80.7176 17.9017C79.7637 17.0352 79.2801 15.8428 79.2666 14.3247V4.32922H81.1811V14.2642C81.1811 15.3256 81.4733 16.1518 82.0577 16.743C82.6421 17.3274 83.4751 17.6196 84.5566 17.6196C85.6515 17.6196 86.4878 17.3274 87.0655 16.743C87.6499 16.1585 87.9421 15.3357 87.9421 14.2743V4.32922H89.8868ZM103.866 12.4606C102.207 11.9837 100.998 11.3993 100.239 10.7074C99.4862 10.0088 99.1101 9.14895 99.1101 8.12791C99.1101 6.97251 99.5702 6.01864 100.49 5.2663C101.417 4.50723 102.62 4.1277 104.098 4.1277C105.105 4.1277 106.002 4.3225 106.788 4.71211C107.581 5.10172 108.192 5.63911 108.622 6.32429C109.059 7.00946 109.277 7.75845 109.277 8.57125H107.332C107.332 7.68456 107.05 6.98931 106.486 6.4855C105.922 5.97498 105.125 5.71972 104.098 5.71972C103.144 5.71972 102.398 5.93132 101.861 6.35451C101.33 6.77099 101.065 7.35205 101.065 8.09768C101.065 8.69552 101.317 9.20269 101.821 9.61917C102.331 10.0289 103.194 10.4051 104.41 10.7477C105.633 11.0903 106.587 11.4698 107.272 11.8863C107.964 12.296 108.474 12.7763 108.803 13.3272C109.139 13.878 109.307 14.5262 109.307 15.2718C109.307 16.4608 108.844 17.4147 107.917 18.1335C106.99 18.8455 105.75 19.2015 104.198 19.2015C103.191 19.2015 102.25 19.0101 101.377 18.6272C100.504 18.2376 99.8288 17.7069 99.3519 17.0352C98.8817 16.3634 98.6466 15.601 98.6466 14.7479H100.591C100.591 15.6346 100.917 16.3366 101.569 16.8538C102.227 17.3643 103.104 17.6196 104.198 17.6196C105.22 17.6196 106.002 17.4113 106.546 16.9949C107.09 16.5784 107.362 16.0108 107.362 15.292C107.362 14.5732 107.11 14.0191 106.607 13.6294C106.103 13.2331 105.189 12.8435 103.866 12.4606ZM129.674 19H127.73V12.2188H120.334V19H118.399V4.32922H120.334V10.6369H127.73V4.32922H129.674V19ZM147.996 15.1711H141.85L140.47 19H138.475L144.077 4.32922H145.77L151.382 19H149.397L147.996 15.1711ZM142.434 13.5791H147.422L144.923 6.71725L142.434 13.5791ZM171.235 19H169.291L161.905 7.69463V19H159.96V4.32922H161.905L169.311 15.685V4.32922H171.235V19ZM191.109 5.92124H186.394V19H184.469V5.92124H179.763V4.32922H191.109V5.92124ZM71.4943 39.3448C71.313 40.8966 70.7386 42.0956 69.7713 42.942C68.8107 43.7817 67.5311 44.2015 65.9323 44.2015C64.1993 44.2015 62.8088 43.5802 61.7608 42.3374C60.7197 41.0947 60.1991 39.4322 60.1991 37.3498V35.9391C60.1991 34.5755 60.4409 33.3764 60.9245 32.342C61.4149 31.3075 62.1068 30.5148 63.0002 29.964C63.8936 29.4065 64.9281 29.1277 66.1036 29.1277C67.6621 29.1277 68.9115 29.5643 69.8519 30.4376C70.7924 31.3041 71.3398 32.5065 71.4943 34.0448H69.5497C69.3817 32.876 69.0156 32.0296 68.4514 31.5057C67.8938 30.9817 67.1112 30.7197 66.1036 30.7197C64.8676 30.7197 63.897 31.1765 63.1917 32.0901C62.493 33.0036 62.1437 34.3034 62.1437 35.9895V37.4102C62.1437 39.0023 62.4762 40.2685 63.1413 41.2089C63.8063 42.1494 64.7367 42.6196 65.9323 42.6196C67.0071 42.6196 67.83 42.3778 68.401 41.8941C68.9787 41.4037 69.3616 40.554 69.5497 39.3448H71.4943ZM92.023 44H90.0783V37.2188H82.6824V44H80.7478V29.3292H82.6824V35.6369H90.0783V29.3292H92.023V44ZM104.138 44H102.203V29.3292H104.138V44ZM124.123 30.9212H119.407V44H117.482V30.9212H112.777V29.3292H124.123V30.9212ZM138.283 38.0652H134.837V44H132.892V29.3292H137.749C139.402 29.3292 140.671 29.7054 141.558 30.4577C142.451 31.2101 142.898 32.305 142.898 33.7425C142.898 34.6561 142.649 35.4521 142.152 36.1306C141.662 36.809 140.977 37.3162 140.097 37.6521L143.543 43.8791V44H141.467L138.283 38.0652ZM134.837 36.4832H137.809C138.77 36.4832 139.532 36.2347 140.097 35.7376C140.668 35.2405 140.953 34.5755 140.953 33.7425C140.953 32.8357 140.681 32.1404 140.137 31.6568C139.6 31.1731 138.82 30.928 137.799 30.9212H134.837V36.4832ZM160.323 40.1711H154.177L152.796 44H150.801L156.403 29.3292H158.096L163.709 44H161.724L160.323 40.1711ZM154.761 38.5791H159.749L157.25 31.7173L154.761 38.5791ZM176.015 37.1785L174.222 39.0426V44H172.287V29.3292H174.222V36.584L180.741 29.3292H183.079L177.305 35.8081L183.532 44H181.214L176.015 37.1785ZM199.929 40.1711H193.783L192.403 44H190.407L196.01 29.3292H197.703L203.315 44H201.33L199.929 40.1711ZM194.367 38.5791H199.355L196.856 31.7173L194.367 38.5791ZM217.274 38.0652H213.828V44H211.883V29.3292H216.74C218.392 29.3292 219.662 29.7054 220.549 30.4577C221.442 31.2101 221.889 32.305 221.889 33.7425C221.889 34.6561 221.64 35.4521 221.143 36.1306C220.653 36.809 219.968 37.3162 219.088 37.6521L222.534 43.8791V44H220.458L217.274 38.0652ZM213.828 36.4832H216.8C217.761 36.4832 218.523 36.2347 219.088 35.7376C219.659 35.2405 219.944 34.5755 219.944 33.7425C219.944 32.8357 219.672 32.1404 219.128 31.6568C218.591 31.1731 217.811 30.928 216.79 30.9212H213.828V36.4832Z" fill="black"/>
<path d="M1.00001 4L1.00001 20L21.6431 20L21.6431 11.1306L21.6431 4L41 4L41 20M0.999991 43L0.999992 27.0141L41 27.0141L41 43" stroke="black" stroke-width="1.96418" stroke-linecap="square"/>
</svg>
